# xmcd
#
# Track frame offsets:
#	150
#	22982
#	41289
#	59887
#	77626
#	97907
#	113322
#	134904
#	151623
#	166761
#	186928
#	205853
#	223798
#	243631
#	262786
#	281860
#
# Disc length: 4019 seconds
#
# Revision: 1
# Processed by: cddbd v1.5.2PL0 Copyright (c) Steve Scherf et al.
# Submitted via: EasyCDDAExtractor 11.1.0.1
#
DISCID=d80fb110
DTITLE=Shemekia Copeland - Deluxe Edition
DYEAR=2011
DGENRE=Blues
TTITLE0=Turn The Heat Up
TTITLE1=Livin' On Love
TTITLE2=Ghetto Child
TTITLE3=When A Woman's Had Enough 
TTITLE4=It's 2 AM
TTITLE5=Better Not Touch
TTITLE6=Don't Whisper
TTITLE7=Sholanda's
TTITLE8=Wild, Wild Woman
TTITLE9=Beat Up Guitar
TTITLE10=Love Scene
TTITLE11=Who Stole My Radio?
TTITLE12=Stay A Little Longer, Santa
TTITLE13=All About You
TTITLE14=Salt In My Wounds
TTITLE15=Your Mama's Talking
EXTD=
EXTT0=
EXTT1=
EXTT2=
EXTT3=
EXTT4=
EXTT5=
EXTT6=
EXTT7=
EXTT8=
EXTT9=
EXTT10=
EXTT11=
EXTT12=
EXTT13=
EXTT14=
EXTT15=
PLAYORDER=
